<svg xmlns="http://www.w3.org/2000/svg" xmlns:xlink="http://www.w3.org/1999/xlink" width="1040" height="711.3"><rect width="1040" height="711.3" rx="5" ry="5" class="a"></rect><svg y="0%" x="0%"><circle cx="20" cy="20" r="6" class="b"></circle><circle cx="40" cy="20" r="6" class="c"></circle><circle cx="60" cy="20" r="6" class="d"></circle></svg><svg height="651.3" viewBox="0 0 100 65.13" width="1000" x="15" xmlns="http://www.w3.org/2000/svg" xmlns:xlink="http://www.w3.org/1999/xlink" y="50"><style>.a{fill:rgb(40,45,53)}.b{fill:#ff5f58}.c{fill:#ffbd2e}.d{fill:#18c132}.e{font-family:Monaco,Consolas,Menlo,'Bitstream Vera Sans Mono','Powerline Symbols',monospace}.f{fill:rgb(180,142,173);white-space:pre}.g{fill:rgb(192,197,206);white-space:pre}.h{fill:rgb(101,115,126);white-space:pre}.i{fill:rgb(191,97,106);white-space:pre}.j{fill:rgb(143,161,179);white-space:pre}.k{fill:rgb(150,181,180);white-space:pre}.l{fill:transparent}.m{fill:rgb(111,118,131)}.o{animation-duration:0.154896s;animation-iteration-count:infinite;animation-name:n;animation-timing-function:steps(1,end)}.p{fill:rgb(185,192,203)}.q{fill:rgb(40,45,53);white-space:pre}@keyframes n{0%{transform:translateX(-0px)}76.6%{transform:translateX(-100px)}99.8%{transform:translateX(-200px)}99.8%{transform:translateX(-300px)}99.8%{transform:translateX(-400px)}99.9%{transform:translateX(-500px)}99.9%{transform:translateX(-600px)}99.9%{transform:translateX(-700px)}100%{transform:translateX(-800px)}}</style><g font-family="Monaco, Consolas, Menlo, &#x27;Bitstream Vera Sans Mono&#x27;, &#x27;Powerline Symbols&#x27;, monospace" font-size="1.67" class="e"><defs><symbol id="1"><text x="0" y="1.67" class="f">use</text><text x="4.008" y="1.67" class="g">std::collections::HashMap;</text></symbol><symbol id="2"><text x="0" y="1.67" class="h">///</text><text x="4.008" y="1.67" class="h">A</text><text x="6.012" y="1.67" class="h">simple</text><text x="13.026" y="1.67" class="h">key-value</text><text x="23.045999999999996" y="1.67" class="h">store</text><text x="29.058" y="1.67" class="h">with</text><text x="34.068" y="1.67" class="h">expiration.</text></symbol><symbol id="3"><text x="0" y="1.67" class="f">pub</text><text x="4.008" y="1.67" class="f">struct</text><text x="11.021999999999998" y="1.67" class="g">Cache&lt;V&gt;</text><text x="20.04" y="1.67" class="g">{</text></symbol><symbol id="4"><text x="4.008" y="1.67" class="i">entries</text><text x="11.021999999999998" y="1.67" class="g">:</text><text x="13.026" y="1.67" class="g">HashMap&lt;String,</text><text x="29.058" y="1.67" class="g">(V,</text><text x="33.065999999999995" y="1.67" class="g">std::time::Instant)&gt;,</text></symbol><symbol id="5"><text x="4.008" y="1.67" class="i">ttl</text><text x="7.013999999999999" y="1.67" class="g">:</text><text x="9.017999999999999" y="1.67" class="g">std::time::Duration,</text></symbol><symbol id="6"><text x="0" y="1.67" class="g">}</text></symbol><symbol id="7"><text x="0" y="1.67" class="f">impl</text><text x="4.008" y="1.67" class="g">&lt;V:</text><text x="8.016" y="1.67" class="g">Clone&gt;</text><text x="15.029999999999998" y="1.67" class="g">Cache&lt;V&gt;</text><text x="24.048" y="1.67" class="g">{</text></symbol><symbol id="8"><text x="4.008" y="1.67" class="f">pub</text><text x="8.016" y="1.67" class="f">fn</text><text x="11.021999999999998" y="1.67" class="j">new</text><text x="14.027999999999999" y="1.67" class="g">(</text><text x="15.029999999999998" y="1.67" class="i">ttl_secs</text><text x="23.045999999999996" y="1.67" class="g">:</text><text x="25.05" y="1.67" class="f">u64</text><text x="28.055999999999997" y="1.67" class="g">)</text><text x="30.059999999999995" y="1.67" class="g">-&gt;</text><text x="33.065999999999995" y="1.67" class="f">Self</text><text x="38.07599999999999" y="1.67" class="g">{</text></symbol><symbol id="9"><text x="8.016" y="1.67" class="f">Self</text><text x="13.026" y="1.67" class="g">{</text></symbol><symbol id="10"><text x="12.024" y="1.67" class="g">entries:</text><text x="21.041999999999998" y="1.67" class="g">HashMap::new(),</text></symbol><symbol id="11"><text x="12.024" y="1.67" class="g">ttl:</text><text x="17.034" y="1.67" class="g">std::time::Duration::from_secs(ttl_secs),</text></symbol><symbol id="12"><text x="8.016" y="1.67" class="g">}</text></symbol><symbol id="13"><text x="4.008" y="1.67" class="g">}</text></symbol><symbol id="14"><text x="4.008" y="1.67" class="f">pub</text><text x="8.016" y="1.67" class="f">fn</text><text x="11.021999999999998" y="1.67" class="j">get</text><text x="14.027999999999999" y="1.67" class="g">(&amp;</text><text x="16.032" y="1.67" class="i">self</text><text x="20.04" y="1.67" class="g">,</text><text x="22.043999999999997" y="1.67" class="i">key</text><text x="25.05" y="1.67" class="g">:</text><text x="27.054" y="1.67" class="g">&amp;</text><text x="28.055999999999997" y="1.67" class="f">str</text><text x="31.061999999999998" y="1.67" class="g">)</text><text x="33.065999999999995" y="1.67" class="g">-&gt;</text><text x="36.071999999999996" y="1.67" class="g">Option&lt;V&gt;</text><text x="46.09199999999999" y="1.67" class="g">{</text></symbol><symbol id="15"><text x="8.016" y="1.67" class="i">self</text><text x="12.024" y="1.67" class="g">.entries.</text><text x="21.041999999999998" y="1.67" class="k">get</text><text x="24.048" y="1.67" class="g">(key).</text><text x="30.059999999999995" y="1.67" class="k">and_then</text><text x="38.07599999999999" y="1.67" class="g">(|(</text><text x="41.082" y="1.67" class="i">val</text><text x="44.087999999999994" y="1.67" class="g">,</text><text x="46.09199999999999" y="1.67" class="i">created</text><text x="53.105999999999995" y="1.67" class="g">)|</text><text x="56.111999999999995" y="1.67" class="g">{</text></symbol><symbol id="16"><text x="12.024" y="1.67" class="f">if</text><text x="15.029999999999998" y="1.67" class="g">created.</text><text x="23.045999999999996" y="1.67" class="k">elapsed</text><text x="30.059999999999995" y="1.67" class="g">()</text><text x="33.065999999999995" y="1.67" class="g">&lt;</text><text x="35.06999999999999" y="1.67" class="i">self</text><text x="39.077999999999996" y="1.67" class="g">.ttl</text><text x="44.087999999999994" y="1.67" class="g">{</text></symbol><symbol id="17"><text x="16.032" y="1.67" class="g">Some(val.</text><text x="25.05" y="1.67" class="k">clone</text><text x="30.059999999999995" y="1.67" class="g">())</text></symbol><symbol id="18"><text x="12.024" y="1.67" class="g">}</text><text x="14.027999999999999" y="1.67" class="f">else</text><text x="19.037999999999997" y="1.67" class="g">{</text></symbol><symbol id="19"><text x="16.032" y="1.67" class="g">None</text></symbol><symbol id="20"><text x="12.024" y="1.67" class="g">}</text></symbol><symbol id="21"><text x="8.016" y="1.67" class="g">})</text></symbol><symbol id="22"><text x="4.008" y="1.67" class="f">pub</text><text x="8.016" y="1.67" class="f">fn</text><text x="11.021999999999998" y="1.67" class="j">set</text><text x="14.027999999999999" y="1.67" class="g">(&amp;</text><text x="16.032" y="1.67" class="f">mut</text><text x="20.04" y="1.67" class="i">self</text><text x="24.048" y="1.67" class="g">,</text><text x="26.052" y="1.67" class="i">key</text><text x="29.058" y="1.67" class="g">:</text><text x="31.061999999999998" y="1.67" class="g">String,</text><text x="39.077999999999996" y="1.67" class="i">value</text><text x="44.087999999999994" y="1.67" class="g">:</text><text x="46.09199999999999" y="1.67" class="g">V)</text><text x="49.098" y="1.67" class="g">{</text></symbol><symbol id="a"><rect height="30" width="100" x="0" y="0" class="l"></rect></symbol><symbol id="b"><rect height="2.171" width="1.1022" class="m"></rect></symbol></defs><rect height="65.13" width="100" class="a"></rect><g class="o"><svg x="0" y="0" width="900"><svg x="0"><use xlink:href="#a"></use><use xlink:href="#b" x="-0.0040000000000000036" y="0"></use></svg><svg x="100"><use xlink:href="#a"></use><use xlink:href="#b" x="-0.0040000000000000036" y="0"></use></svg><svg x="200"><use xlink:href="#a"></use><use xlink:href="#b" x="6.996" y="10.83"></use><use xlink:href="#1" y="0"></use><use xlink:href="#2" y="4.342"></use><use xlink:href="#3" y="6.513"></use><use xlink:href="#4" y="8.684"></use><text x="4.008" y="12.525" class="i">ttl</text></svg><svg x="300"><use xlink:href="#a"></use><use xlink:href="#b" x="-0.0040000000000000036" y="21.685000000000002"></use><use xlink:href="#1" y="0"></use><use xlink:href="#2" y="4.342"></use><use xlink:href="#3" y="6.513"></use><use xlink:href="#4" y="8.684"></use><use xlink:href="#5" y="10.855"></use><use xlink:href="#6" y="13.026"></use><use xlink:href="#7" y="17.368"></use><use xlink:href="#8" y="19.539"></use></svg><svg x="400"><use xlink:href="#a"></use><use xlink:href="#b" x="-0.0040000000000000036" y="34.711"></use><use xlink:href="#1" y="0"></use><use xlink:href="#2" y="4.342"></use><use xlink:href="#3" y="6.513"></use><use xlink:href="#4" y="8.684"></use><use xlink:href="#5" y="10.855"></use><use xlink:href="#6" y="13.026"></use><use xlink:href="#7" y="17.368"></use><use xlink:href="#8" y="19.539"></use><use xlink:href="#9" y="21.71"></use><use xlink:href="#10" y="23.880999999999997"></use><use xlink:href="#11" y="26.052"></use><use xlink:href="#12" y="28.223000000000003"></use><use xlink:href="#13" y="30.394"></use></svg><svg x="500"><use xlink:href="#a"></use><use xlink:href="#b" x="-0.0040000000000000036" y="39.053000000000004"></use><use xlink:href="#1" y="0"></use><use xlink:href="#2" y="4.342"></use><use xlink:href="#3" y="6.513"></use><use xlink:href="#4" y="8.684"></use><use xlink:href="#5" y="10.855"></use><use xlink:href="#6" y="13.026"></use><use xlink:href="#7" y="17.368"></use><use xlink:href="#8" y="19.539"></use><use xlink:href="#9" y="21.71"></use><use xlink:href="#10" y="23.880999999999997"></use><use xlink:href="#11" y="26.052"></use><use xlink:href="#12" y="28.223000000000003"></use><use xlink:href="#13" y="30.394"></use><use xlink:href="#14" y="34.736"></use><use xlink:href="#15" y="36.907000000000004"></use></svg><svg x="600"><use xlink:href="#a"></use><use xlink:href="#b" x="4.996" y="52.079"></use><use xlink:href="#1" y="0"></use><use xlink:href="#2" y="4.342"></use><use xlink:href="#3" y="6.513"></use><use xlink:href="#4" y="8.684"></use><use xlink:href="#5" y="10.855"></use><use xlink:href="#6" y="13.026"></use><use xlink:href="#7" y="17.368"></use><use xlink:href="#8" y="19.539"></use><use xlink:href="#9" y="21.71"></use><use xlink:href="#10" y="23.880999999999997"></use><use xlink:href="#11" y="26.052"></use><use xlink:href="#12" y="28.223000000000003"></use><use xlink:href="#13" y="30.394"></use><use xlink:href="#14" y="34.736"></use><use xlink:href="#15" y="36.907000000000004"></use><use xlink:href="#16" y="39.078"></use><use xlink:href="#17" y="41.248999999999995"></use><use xlink:href="#18" y="43.42"></use><use xlink:href="#19" y="45.591"></use><use xlink:href="#20" y="47.76199999999999"></use><use xlink:href="#21" y="49.933"></use><use xlink:href="#13" y="52.104"></use></svg><svg x="700"><use xlink:href="#a"></use><use xlink:href="#b" x="66.996" y="58.592"></use><use xlink:href="#1" y="0"></use><use xlink:href="#2" y="4.342"></use><use xlink:href="#3" y="6.513"></use><use xlink:href="#4" y="8.684"></use><use xlink:href="#5" y="10.855"></use><use xlink:href="#6" y="13.026"></use><use xlink:href="#7" y="17.368"></use><use xlink:href="#8" y="19.539"></use><use xlink:href="#9" y="21.71"></use><use xlink:href="#10" y="23.880999999999997"></use><use xlink:href="#11" y="26.052"></use><use xlink:href="#12" y="28.223000000000003"></use><use xlink:href="#13" y="30.394"></use><use xlink:href="#14" y="34.736"></use><use xlink:href="#15" y="36.907000000000004"></use><use xlink:href="#16" y="39.078"></use><use xlink:href="#17" y="41.248999999999995"></use><use xlink:href="#18" y="43.42"></use><use xlink:href="#19" y="45.591"></use><use xlink:href="#20" y="47.76199999999999"></use><use xlink:href="#21" y="49.933"></use><use xlink:href="#13" y="52.104"></use><use xlink:href="#22" y="56.446000000000005"></use><text x="8.016" y="60.287" class="i">self</text><text x="12.024" y="60.287" class="g">.entries.</text><text x="21.041999999999998" y="60.287" class="k">insert</text><text x="27.054" y="60.287" class="g">(key,</text><text x="33.065999999999995" y="60.287" class="g">(value,</text><text x="41.082" y="60.287" class="g">std::time::Instant::now())</text></svg><svg x="800"><use xlink:href="#a"></use><use xlink:href="#b" x="15.996" y="62.934000000000005"></use><use xlink:href="#1" y="0"></use><use xlink:href="#2" y="4.342"></use><use xlink:href="#3" y="6.513"></use><use xlink:href="#4" y="8.684"></use><use xlink:href="#5" y="10.855"></use><use xlink:href="#6" y="13.026"></use><use xlink:href="#7" y="17.368"></use><use xlink:href="#8" y="19.539"></use><use xlink:href="#9" y="21.71"></use><use xlink:href="#10" y="23.880999999999997"></use><use xlink:href="#11" y="26.052"></use><use xlink:href="#12" y="28.223000000000003"></use><use xlink:href="#13" y="30.394"></use><use xlink:href="#14" y="34.736"></use><use xlink:href="#15" y="36.907000000000004"></use><use xlink:href="#16" y="39.078"></use><use xlink:href="#17" y="41.248999999999995"></use><use xlink:href="#18" y="43.42"></use><use xlink:href="#19" y="45.591"></use><use xlink:href="#20" y="47.76199999999999"></use><use xlink:href="#21" y="49.933"></use><use xlink:href="#13" y="52.104"></use><use xlink:href="#22" y="56.446000000000005"></use><text x="8.016" y="60.287" class="i">self</text><text x="12.024" y="60.287" class="g">.entries.</text><text x="21.041999999999998" y="60.287" class="k">insert</text><text x="27.054" y="60.287" class="g">(key,</text><text x="33.065999999999995" y="60.287" class="g">(value,</text><text x="41.082" y="60.287" class="g">std::time::Instant::now()));</text><use xlink:href="#13" y="60.788"></use><rect height="2.171" width="16" x="0" y="62.959" class="p"></rect><text x="0" y="64.629" class="q">/tmp/pgr_demo.rs</text></svg></svg></g></g></svg></svg>